<svg width="350" height="59" viewBox="0 0 350 59" fill="none" xmlns="http://www.w3.org/2000/svg">
<g clip-path="url(#clip0_4110_8101)">
<path d="M122.476 29.6739L113.789 19.3768H107.375V41.4928H114.244V31.3986L122.931 41.4928H129.345V19.3768H122.476V29.6739Z" fill="#808594"/>
<path d="M137.93 41.4928H145.303V33.7319H154.344V28.3044H145.303V25.058H155.808V19.3768H137.93V41.4928Z" fill="#808594"/>
<path d="M170.657 19.3768H163.283V41.4928H181.718V35.5073H170.657V19.3768Z" fill="#808594"/>
<path d="M194.546 19.3768L186.516 41.4928H194.091L195 38.4493H202.223L203.132 41.4928H210.96L202.93 19.3768H194.546V19.3768ZM200.607 33.1232H196.566L198.586 26.2754L200.607 33.1232Z" fill="#808594"/>
<path d="M241.365 19.3768H232.173L224.8 28.2536V19.3768H217.426V41.4928H224.8V36.5217L228.284 33.7319L232.678 41.4928H241.416L233.385 28.558L241.365 19.3768Z" fill="#808594"/>
<path d="M253.89 19.3768L245.859 41.4928H253.435L254.344 38.4493H261.566L262.476 41.4928H270.304L262.274 19.3768H253.89V19.3768ZM260.001 33.1232H255.96L257.981 26.2754L260.001 33.1232Z" fill="#808594"/>
<path d="M294.343 30.029C296.465 29.2174 297.576 27.4928 297.576 24.9565C297.576 23.8913 297.273 22.9275 296.717 22.1159C296.162 21.2536 295.404 20.5942 294.444 20.1377C293.485 19.6812 292.475 19.4275 291.364 19.4275H276.768V41.5435H291.566C292.727 41.5435 293.838 41.2899 294.848 40.7826C295.858 40.2754 296.616 39.5652 297.222 38.6522C297.778 37.7391 298.081 36.6739 298.081 35.5072C298.081 32.6159 296.818 30.7899 294.343 30.029ZM284.141 27.8478V24.6522H288.687C289.04 24.6522 289.394 24.8043 289.646 25.058C289.899 25.3623 290.05 25.6667 290.05 26.0725V26.3768C290.05 26.7826 289.899 27.1377 289.646 27.442C289.394 27.6957 289.091 27.8478 288.687 27.8478H284.141ZM290.555 34.2391V34.5435C290.555 34.9493 290.404 35.3043 290.151 35.6087C289.899 35.8623 289.596 36.0145 289.192 36.0145H284.141V32.7681H289.192C289.596 32.7681 289.899 32.9203 290.151 33.1739C290.454 33.4783 290.555 33.7826 290.555 34.2391Z" fill="#808594"/>
<path d="M312.981 19.3768H305.607V41.4928H324.042V35.5073H312.981V19.3768Z" fill="#808594"/>
<path d="M338.334 35.8623V33.0217H348.334V27.5942H338.334V25.058H350.052V19.3768H330.91V41.4928H350.254V35.8623H338.334Z" fill="#808594"/>
<path d="M91.4149 32.4638C91.4149 33.5797 91.1118 34.4928 90.5058 35.2029C89.8997 35.8623 88.9906 36.2174 87.829 36.2174C86.6674 36.2174 85.7583 35.8623 85.2027 35.2029C84.5967 34.5435 84.2937 33.5797 84.2937 32.4638V20.6957C81.3644 19.0217 76.9199 16.4348 76.9199 16.4348V32.5652C76.9199 35.558 77.8795 37.942 79.7987 39.5145C81.7179 41.087 84.4452 41.8985 87.8795 41.8985C91.3644 41.8985 94.0916 41.087 95.9603 39.5145C97.8795 37.942 98.8391 35.6087 98.8391 32.5652V19.3768H91.4149V32.4638Z" fill="#808594"/>
<path d="M9.59653 34.9493L30.3036 46.9203L50.9602 34.9493V11.0072L60.8087 5.27536V40.6304L30.3036 58.3333L-0.251953 40.6304V5.27536L9.59653 11.0072V34.9493Z" fill="#808594"/>
<path d="M36.2129 26.3768L45.6573 31.8551L60.8089 22.8768L50.9604 17.6522L36.2129 26.3768Z" fill="#31EE7C"/>
<path d="M26.1113 14.5072L50.7578 0L60.8083 5.27536L35.7578 20.0362L26.1113 14.5072Z" fill="#31EE7C"/>
</g>
<defs>
<clipPath id="clip0_4110_8101">
<rect width="350" height="58.3333" fill="white"/>
</clipPath>
</defs>
</svg>
